<?xml version="1.0" encoding="utf-8"?>
<!-- Generator: Adobe Illustrator 22.1.0, SVG Export Plug-In . SVG Version: 6.00 Build 0)  -->
<svg version="1.1" id="Layer_1" xmlns="http://www.w3.org/2000/svg" xmlns:xlink="http://www.w3.org/1999/xlink" x="0px" y="0px"
	 viewBox="0 0 24 24" style="enable-background:new 0 0 24 24;" xml:space="preserve">
<style type="text/css">
	.st0{fill:#303C42;}
</style>
<g>
	<path class="st0" d="M23.5,9C23.8,9,24,8.8,24,8.5v-1C24,7.2,23.8,7,23.5,7H17V0.5C17,0.2,16.8,0,16.5,0h-1C15.2,0,15,0.2,15,0.5V7
		H9V0.5C9,0.2,8.8,0,8.5,0h-1C7.2,0,7,0.2,7,0.5V7H0.5C0.2,7,0,7.2,0,7.5v1C0,8.8,0.2,9,0.5,9H7v6H0.5C0.2,15,0,15.2,0,15.5v1
		C0,16.8,0.2,17,0.5,17H7v6.5C7,23.8,7.2,24,7.5,24h1C8.8,24,9,23.8,9,23.5V17h6v6.5c0,0.3,0.2,0.5,0.5,0.5h1c0.3,0,0.5-0.2,0.5-0.5
		V17h6.5c0.3,0,0.5-0.2,0.5-0.5v-1c0-0.3-0.2-0.5-0.5-0.5H17V9H23.5z M15,15H9V9h6V15z"/>
</g>
</svg>
