<?xml version="1.0" encoding="utf-8"?>
<!-- Generator: Adobe Illustrator 22.1.0, SVG Export Plug-In . SVG Version: 6.00 Build 0)  -->
<svg version="1.1" id="Layer_1" xmlns="http://www.w3.org/2000/svg" xmlns:xlink="http://www.w3.org/1999/xlink" x="0px" y="0px"
	 viewBox="0 0 24 24" style="enable-background:new 0 0 24 24;" xml:space="preserve">
<style type="text/css">
	.st0{fill:#B33490;}
</style>
<g>
	<path class="st0" d="M14.2,9.8c-0.4-0.4-1-0.4-1.4,0L12,10.6l-0.8-0.8c-0.4-0.4-1-0.4-1.4,0s-0.4,1,0,1.4l0.8,0.8l-0.8,0.8
		c-0.4,0.4-0.4,1,0,1.4c0.2,0.2,0.5,0.3,0.7,0.3s0.5-0.1,0.7-0.3l0.8-0.8l0.8,0.8c0.2,0.2,0.5,0.3,0.7,0.3s0.5-0.1,0.7-0.3
		c0.4-0.4,0.4-1,0-1.4L13.4,12l0.8-0.8C14.6,10.8,14.6,10.2,14.2,9.8z"/>
</g>
</svg>
